<svg xmlns="http://www.w3.org/2000/svg" width="800" height="600">
<rect width="800" height="600" fill="white" />
  <circle cx="223.22" cy="120.21" r="15" fill="#d90d0d" />
  <circle cx="37.89" cy="44.64" r="15" fill="#0056a9" />
  <circle cx="346.50" cy="156.22" r="15" fill="#0056a9" />
  <circle cx="469.77" cy="229.60" r="15" fill="#0056a9" />
  <circle cx="36.81" cy="523.27" r="15" fill="#d90d0d" />
  <circle cx="407.63" cy="306.82" r="15" fill="#d90d0d" />
  <circle cx="179.13" cy="249.02" r="15" fill="#d90d0d" />
  <circle cx="462.47" cy="380.78" r="15" fill="#d90d0d" />
  <circle cx="363.07" cy="270.56" r="15" fill="#0056a9" />
  <circle cx="706.44" cy="109.00" r="15" fill="#d90d0d" />
  <circle cx="630.20" cy="579.93" r="15" fill="#0056a9" />
  <circle cx="389.70" cy="486.95" r="15" fill="#0056a9" />
  <circle cx="252.11" cy="563.59" r="15" fill="#0056a9" />
  <circle cx="459.04" cy="111.07" r="15" fill="#0056a9" />
  <circle cx="383.98" cy="138.64" r="15" fill="#d90d0d" />
  <circle cx="321.82" cy="389.44" r="15" fill="#d90d0d" />
  <circle cx="276.66" cy="574.00" r="15" fill="#0056a9" />
  <circle cx="257.71" cy="452.18" r="15" fill="#d90d0d" />
  <circle cx="374.13" cy="143.74" r="15" fill="#d90d0d" />
  <circle cx="257.25" cy="305.38" r="15" fill="#0056a9" />
  <circle cx="478.25" cy="522.22" r="15" fill="#0056a9" />
  <circle cx="668.03" cy="540.92" r="15" fill="#0056a9" />
  <circle cx="443.19" cy="463.92" r="15" fill="#0056a9" />
  <circle cx="379.89" cy="546.40" r="15" fill="#d90d0d" />
  <circle cx="362.95" cy="90.69" r="15" fill="#d90d0d" />
  <circle cx="606.20" cy="316.24" r="15" fill="#d90d0d" />
  <circle cx="364.15" cy="229.03" r="15" fill="#0056a9" />
  <circle cx="207.59" cy="71.67" r="15" fill="#0056a9" />
  <circle cx="539.81" cy="106.24" r="15" fill="#0056a9" />
  <circle cx="318.10" cy="429.59" r="15" fill="#d90d0d" />
  <circle cx="89.04" cy="487.35" r="15" fill="#0056a9" />
  <circle cx="646.46" cy="491.14" r="15" fill="#d90d0d" />
  <circle cx="267.30" cy="485.45" r="15" fill="#0056a9" />
  <circle cx="295.79" cy="564.66" r="15" fill="#d90d0d" />
  <circle cx="243.18" cy="506.67" r="15" fill="#0056a9" />
  <circle cx="16.63" cy="229.86" r="15" fill="#0056a9" />
  <circle cx="508.11" cy="444.08" r="15" fill="#0056a9" />
  <circle cx="271.79" cy="18.18" r="15" fill="#d90d0d" />
  <circle cx="331.29" cy="306.79" r="15" fill="#0056a9" />
  <circle cx="476.94" cy="551.53" r="15" fill="#0056a9" />
  <circle cx="436.96" cy="60.30" r="15" fill="#0056a9" />
  <circle cx="173.22" cy="543.12" r="15" fill="#0056a9" />
  <circle cx="604.40" cy="210.34" r="15" fill="#0056a9" />
  <circle cx="751.82" cy="583.56" r="15" fill="#0056a9" />
  <circle cx="705.47" cy="70.01" r="15" fill="#0056a9" />
  <circle cx="531.84" cy="17.78" r="15" fill="#0056a9" />
  <circle cx="282.66" cy="281.37" r="15" fill="#0056a9" />
  <circle cx="91.56" cy="394.89" r="15" fill="#d90d0d" />
  <circle cx="637.27" cy="250.34" r="15" fill="#0056a9" />
  <circle cx="18.03" cy="117.83" r="15" fill="#d90d0d" />
  <circle cx="633.10" cy="134.33" r="15" fill="#0056a9" />
  <circle cx="505.33" cy="537.43" r="15" fill="#0056a9" />
  <circle cx="215.95" cy="469.56" r="15" fill="#d90d0d" />
  <circle cx="185.36" cy="26.98" r="15" fill="#0056a9" />
  <circle cx="752.76" cy="358.13" r="15" fill="#0056a9" />
  <circle cx="163.96" cy="413.22" r="15" fill="#d90d0d" />
  <circle cx="118.31" cy="510.72" r="15" fill="#d90d0d" />
  <circle cx="206.45" cy="492.93" r="15" fill="#0056a9" />
  <circle cx="452.53" cy="236.92" r="15" fill="#d90d0d" />
  <circle cx="290.59" cy="504.44" r="15" fill="#0056a9" />
  <circle cx="294.52" cy="28.56" r="15" fill="#0056a9" />
  <circle cx="415.64" cy="261.79" r="15" fill="#d90d0d" />
  <circle cx="622.90" cy="40.21" r="15" fill="#0056a9" />
  <circle cx="566.41" cy="557.39" r="15" fill="#0056a9" />
  <circle cx="637.84" cy="204.43" r="15" fill="#0056a9" />
  <circle cx="70.62" cy="355.10" r="15" fill="#0056a9" />
  <circle cx="265.35" cy="311.82" r="15" fill="#0056a9" />
  <circle cx="750.37" cy="88.67" r="15" fill="#0056a9" />
  <circle cx="636.98" cy="337.43" r="15" fill="#0056a9" />
  <circle cx="627.22" cy="461.17" r="15" fill="#0056a9" />
  <circle cx="387.96" cy="428.73" r="15" fill="#d90d0d" />
  <circle cx="619.50" cy="373.44" r="15" fill="#0056a9" />
  <circle cx="591.58" cy="397.59" r="15" fill="#d90d0d" />
  <circle cx="23.36" cy="224.64" r="15" fill="#d90d0d" />
  <circle cx="527.60" cy="380.60" r="15" fill="#d90d0d" />
  <circle cx="673.71" cy="136.79" r="15" fill="#0056a9" />
  <circle cx="61.42" cy="65.65" r="15" fill="#d90d0d" />
  <circle cx="151.79" cy="379.77" r="15" fill="#0056a9" />
  <circle cx="710.29" cy="430.38" r="15" fill="#0056a9" />
  <circle cx="406.25" cy="304.82" r="15" fill="#d90d0d" />
  <circle cx="171.86" cy="413.88" r="15" fill="#0056a9" />
  <circle cx="137.43" cy="67.14" r="15" fill="#0056a9" />
  <circle cx="81.39" cy="76.23" r="15" fill="#d90d0d" />
  <circle cx="416.57" cy="161.05" r="15" fill="#0056a9" />
  <circle cx="471.59" cy="447.38" r="15" fill="#d90d0d" />
  <circle cx="426.37" cy="490.07" r="15" fill="#0056a9" />
  <circle cx="228.13" cy="344.00" r="15" fill="#0056a9" />
  <circle cx="567.55" cy="153.50" r="15" fill="#0056a9" />
  <circle cx="472.80" cy="71.60" r="15" fill="#0056a9" />
  <circle cx="115.82" cy="74.24" r="15" fill="#0056a9" />
  <circle cx="485.78" cy="391.79" r="15" fill="#0056a9" />
  <circle cx="384.24" cy="390.37" r="15" fill="#0056a9" />
  <circle cx="317.70" cy="191.45" r="15" fill="#0056a9" />
  <circle cx="126.27" cy="536.85" r="15" fill="#0056a9" />
  <circle cx="473.66" cy="304.81" r="15" fill="#0056a9" />
  <circle cx="92.72" cy="552.76" r="15" fill="#0056a9" />
  <circle cx="368.00" cy="182.53" r="15" fill="#0056a9" />
  <circle cx="636.80" cy="327.93" r="15" fill="#d90d0d" />
  <circle cx="593.82" cy="142.41" r="15" fill="#d90d0d" />
  <circle cx="762.37" cy="25.61" r="15" fill="#d90d0d" />
<text x="10" y="590" font-size="30" fill="#0056a9" font-family="Courier, monospace">WEST TEXAS</text>
</svg>