<svg xmlns="http://www.w3.org/2000/svg" width="800" height="600">
<rect width="800" height="600" fill="white" />
  <circle cx="151.05" cy="294.97" r="15" fill="#0056a9" />
  <circle cx="638.20" cy="544.71" r="15" fill="#d90d0d" />
  <circle cx="506.56" cy="386.63" r="15" fill="#0056a9" />
  <circle cx="167.11" cy="136.37" r="15" fill="#d90d0d" />
  <circle cx="485.78" cy="473.39" r="15" fill="#d90d0d" />
  <circle cx="148.05" cy="544.06" r="15" fill="#0056a9" />
  <circle cx="231.76" cy="553.27" r="15" fill="#0056a9" />
  <circle cx="374.45" cy="175.58" r="15" fill="#0056a9" />
  <circle cx="400.21" cy="467.86" r="15" fill="#0056a9" />
  <circle cx="51.02" cy="220.06" r="15" fill="#0056a9" />
  <circle cx="590.60" cy="480.11" r="15" fill="#0056a9" />
  <circle cx="706.21" cy="386.94" r="15" fill="#d90d0d" />
  <circle cx="387.53" cy="237.10" r="15" fill="#0056a9" />
  <circle cx="110.98" cy="405.49" r="15" fill="#0056a9" />
  <circle cx="605.88" cy="445.31" r="15" fill="#0056a9" />
  <circle cx="350.24" cy="203.47" r="15" fill="#0056a9" />
  <circle cx="770.72" cy="346.42" r="15" fill="#0056a9" />
  <circle cx="414.88" cy="68.43" r="15" fill="#0056a9" />
  <circle cx="431.51" cy="87.35" r="15" fill="#0056a9" />
  <circle cx="461.65" cy="132.58" r="15" fill="#0056a9" />
  <circle cx="553.85" cy="418.70" r="15" fill="#0056a9" />
  <circle cx="563.13" cy="511.54" r="15" fill="#0056a9" />
  <circle cx="495.10" cy="253.60" r="15" fill="#d90d0d" />
  <circle cx="456.93" cy="518.69" r="15" fill="#0056a9" />
  <circle cx="737.43" cy="571.66" r="15" fill="#0056a9" />
  <circle cx="28.81" cy="274.66" r="15" fill="#d90d0d" />
  <circle cx="748.85" cy="276.14" r="15" fill="#0056a9" />
  <circle cx="688.50" cy="295.73" r="15" fill="#0056a9" />
  <circle cx="161.12" cy="125.56" r="15" fill="#0056a9" />
  <circle cx="127.62" cy="552.82" r="15" fill="#0056a9" />
  <circle cx="453.14" cy="535.28" r="15" fill="#0056a9" />
  <circle cx="503.63" cy="320.15" r="15" fill="#0056a9" />
  <circle cx="453.24" cy="275.94" r="15" fill="#0056a9" />
  <circle cx="746.63" cy="204.94" r="15" fill="#0056a9" />
  <circle cx="574.30" cy="241.95" r="15" fill="#0056a9" />
  <circle cx="170.98" cy="429.50" r="15" fill="#0056a9" />
  <circle cx="780.03" cy="362.04" r="15" fill="#0056a9" />
  <circle cx="635.12" cy="149.30" r="15" fill="#0056a9" />
  <circle cx="686.28" cy="323.95" r="15" fill="#0056a9" />
  <circle cx="482.05" cy="184.00" r="15" fill="#0056a9" />
  <circle cx="228.28" cy="194.35" r="15" fill="#d90d0d" />
  <circle cx="756.55" cy="21.96" r="15" fill="#0056a9" />
  <circle cx="290.01" cy="578.90" r="15" fill="#0056a9" />
  <circle cx="84.34" cy="240.29" r="15" fill="#0056a9" />
  <circle cx="577.13" cy="481.74" r="15" fill="#d90d0d" />
  <circle cx="360.05" cy="384.19" r="15" fill="#d90d0d" />
  <circle cx="463.76" cy="207.06" r="15" fill="#0056a9" />
  <circle cx="619.51" cy="512.92" r="15" fill="#0056a9" />
  <circle cx="207.17" cy="79.57" r="15" fill="#d90d0d" />
  <circle cx="416.49" cy="39.02" r="15" fill="#0056a9" />
  <circle cx="386.90" cy="123.30" r="15" fill="#0056a9" />
  <circle cx="158.06" cy="317.99" r="15" fill="#d90d0d" />
  <circle cx="413.28" cy="316.91" r="15" fill="#0056a9" />
  <circle cx="560.13" cy="70.23" r="15" fill="#0056a9" />
  <circle cx="712.08" cy="549.22" r="15" fill="#0056a9" />
  <circle cx="88.11" cy="450.61" r="15" fill="#0056a9" />
  <circle cx="394.58" cy="564.00" r="15" fill="#d90d0d" />
  <circle cx="361.03" cy="95.86" r="15" fill="#0056a9" />
  <circle cx="708.95" cy="294.64" r="15" fill="#d90d0d" />
  <circle cx="113.65" cy="308.19" r="15" fill="#d90d0d" />
  <circle cx="696.82" cy="87.12" r="15" fill="#0056a9" />
  <circle cx="652.87" cy="451.38" r="15" fill="#d90d0d" />
  <circle cx="61.02" cy="147.05" r="15" fill="#0056a9" />
  <circle cx="142.28" cy="316.20" r="15" fill="#0056a9" />
  <circle cx="388.71" cy="468.25" r="15" fill="#0056a9" />
  <circle cx="109.51" cy="83.89" r="15" fill="#0056a9" />
  <circle cx="641.01" cy="347.95" r="15" fill="#d90d0d" />
  <circle cx="720.46" cy="208.80" r="15" fill="#d90d0d" />
  <circle cx="204.28" cy="369.30" r="15" fill="#0056a9" />
  <circle cx="736.37" cy="26.62" r="15" fill="#d90d0d" />
  <circle cx="53.91" cy="130.42" r="15" fill="#0056a9" />
  <circle cx="555.09" cy="423.73" r="15" fill="#0056a9" />
  <circle cx="735.29" cy="202.58" r="15" fill="#0056a9" />
  <circle cx="70.31" cy="175.51" r="15" fill="#0056a9" />
  <circle cx="381.14" cy="242.24" r="15" fill="#d90d0d" />
  <circle cx="186.56" cy="222.45" r="15" fill="#d90d0d" />
  <circle cx="365.14" cy="39.86" r="15" fill="#0056a9" />
  <circle cx="216.93" cy="406.63" r="15" fill="#0056a9" />
  <circle cx="371.06" cy="559.21" r="15" fill="#0056a9" />
  <circle cx="530.65" cy="234.41" r="15" fill="#d90d0d" />
  <circle cx="210.39" cy="326.84" r="15" fill="#0056a9" />
  <circle cx="118.68" cy="64.53" r="15" fill="#0056a9" />
  <circle cx="415.46" cy="547.10" r="15" fill="#d90d0d" />
  <circle cx="270.80" cy="415.35" r="15" fill="#0056a9" />
  <circle cx="784.70" cy="144.61" r="15" fill="#d90d0d" />
  <circle cx="133.85" cy="60.17" r="15" fill="#d90d0d" />
  <circle cx="186.78" cy="172.42" r="15" fill="#0056a9" />
  <circle cx="470.31" cy="246.61" r="15" fill="#0056a9" />
  <circle cx="401.41" cy="218.88" r="15" fill="#d90d0d" />
  <circle cx="429.21" cy="479.33" r="15" fill="#d90d0d" />
  <circle cx="523.71" cy="88.17" r="15" fill="#0056a9" />
  <circle cx="588.53" cy="519.59" r="15" fill="#d90d0d" />
  <circle cx="730.24" cy="326.24" r="15" fill="#0056a9" />
  <circle cx="57.05" cy="436.84" r="15" fill="#0056a9" />
  <circle cx="357.44" cy="574.83" r="15" fill="#d90d0d" />
  <circle cx="271.26" cy="491.25" r="15" fill="#0056a9" />
  <circle cx="234.75" cy="218.89" r="15" fill="#0056a9" />
  <circle cx="167.70" cy="217.72" r="15" fill="#0056a9" />
  <circle cx="122.01" cy="194.84" r="15" fill="#d90d0d" />
  <circle cx="435.42" cy="543.89" r="15" fill="#d90d0d" />
<text x="0" y="600" font-size="30" fill="#0056a9" font-family="Courier, monospace">WEST TEXAS</text>
</svg>