<svg xmlns="http://www.w3.org/2000/svg" width="800" height="600">
<rect width="800" height="600" fill="white" />
  <circle cx="220.94" cy="30.36" r="15" fill="#0056a9" />
  <circle cx="328.35" cy="140.78" r="15" fill="#d90d0d" />
  <circle cx="647.23" cy="120.94" r="15" fill="#0056a9" />
  <circle cx="632.73" cy="270.09" r="15" fill="#d90d0d" />
  <circle cx="449.10" cy="78.54" r="15" fill="#d90d0d" />
  <circle cx="605.54" cy="404.20" r="15" fill="#0056a9" />
  <circle cx="365.48" cy="380.09" r="15" fill="#d90d0d" />
  <circle cx="339.43" cy="79.84" r="15" fill="#0056a9" />
  <circle cx="436.99" cy="524.22" r="15" fill="#0056a9" />
  <circle cx="505.34" cy="78.58" r="15" fill="#d90d0d" />
  <circle cx="181.35" cy="490.48" r="15" fill="#0056a9" />
  <circle cx="431.29" cy="225.73" r="15" fill="#0056a9" />
  <circle cx="67.51" cy="90.39" r="15" fill="#d90d0d" />
  <circle cx="345.52" cy="315.34" r="15" fill="#d90d0d" />
  <circle cx="366.51" cy="198.39" r="15" fill="#0056a9" />
  <circle cx="459.26" cy="136.53" r="15" fill="#0056a9" />
  <circle cx="761.06" cy="302.11" r="15" fill="#0056a9" />
  <circle cx="360.53" cy="87.18" r="15" fill="#0056a9" />
  <circle cx="307.93" cy="85.21" r="15" fill="#0056a9" />
  <circle cx="105.74" cy="239.03" r="15" fill="#d90d0d" />
  <circle cx="722.05" cy="198.31" r="15" fill="#0056a9" />
  <circle cx="83.67" cy="532.33" r="15" fill="#0056a9" />
  <circle cx="189.56" cy="520.14" r="15" fill="#d90d0d" />
  <circle cx="499.92" cy="66.90" r="15" fill="#0056a9" />
  <circle cx="324.69" cy="240.85" r="15" fill="#0056a9" />
  <circle cx="104.16" cy="539.13" r="15" fill="#0056a9" />
  <circle cx="291.54" cy="239.05" r="15" fill="#0056a9" />
  <circle cx="595.31" cy="548.07" r="15" fill="#0056a9" />
  <circle cx="514.56" cy="452.40" r="15" fill="#d90d0d" />
  <circle cx="671.51" cy="256.84" r="15" fill="#0056a9" />
  <circle cx="436.21" cy="448.00" r="15" fill="#0056a9" />
  <circle cx="721.03" cy="342.52" r="15" fill="#0056a9" />
  <circle cx="322.48" cy="261.11" r="15" fill="#0056a9" />
  <circle cx="331.53" cy="507.55" r="15" fill="#0056a9" />
  <circle cx="135.74" cy="492.79" r="15" fill="#0056a9" />
  <circle cx="616.72" cy="541.72" r="15" fill="#0056a9" />
  <circle cx="442.90" cy="205.92" r="15" fill="#0056a9" />
  <circle cx="615.26" cy="438.58" r="15" fill="#d90d0d" />
  <circle cx="554.74" cy="179.31" r="15" fill="#d90d0d" />
  <circle cx="415.87" cy="425.32" r="15" fill="#0056a9" />
  <circle cx="730.42" cy="175.43" r="15" fill="#0056a9" />
  <circle cx="708.02" cy="71.14" r="15" fill="#0056a9" />
  <circle cx="215.18" cy="229.54" r="15" fill="#d90d0d" />
  <circle cx="558.49" cy="301.11" r="15" fill="#0056a9" />
  <circle cx="122.00" cy="268.15" r="15" fill="#0056a9" />
  <circle cx="423.26" cy="120.46" r="15" fill="#0056a9" />
  <circle cx="131.59" cy="76.91" r="15" fill="#0056a9" />
  <circle cx="20.86" cy="294.85" r="15" fill="#d90d0d" />
  <circle cx="299.45" cy="123.41" r="15" fill="#0056a9" />
  <circle cx="339.73" cy="537.72" r="15" fill="#d90d0d" />
  <circle cx="187.23" cy="450.31" r="15" fill="#0056a9" />
  <circle cx="43.31" cy="48.55" r="15" fill="#0056a9" />
  <circle cx="434.33" cy="294.25" r="15" fill="#0056a9" />
  <circle cx="628.87" cy="503.29" r="15" fill="#0056a9" />
  <circle cx="530.35" cy="74.24" r="15" fill="#0056a9" />
  <circle cx="562.36" cy="417.74" r="15" fill="#0056a9" />
  <circle cx="658.31" cy="503.20" r="15" fill="#0056a9" />
  <circle cx="110.02" cy="336.30" r="15" fill="#0056a9" />
  <circle cx="541.25" cy="201.63" r="15" fill="#0056a9" />
  <circle cx="187.52" cy="427.04" r="15" fill="#d90d0d" />
  <circle cx="394.61" cy="315.57" r="15" fill="#0056a9" />
  <circle cx="243.69" cy="146.68" r="15" fill="#0056a9" />
  <circle cx="686.80" cy="37.05" r="15" fill="#d90d0d" />
  <circle cx="627.54" cy="191.02" r="15" fill="#0056a9" />
  <circle cx="567.34" cy="313.73" r="15" fill="#0056a9" />
  <circle cx="497.29" cy="57.42" r="15" fill="#0056a9" />
  <circle cx="621.81" cy="190.92" r="15" fill="#0056a9" />
  <circle cx="110.26" cy="529.09" r="15" fill="#0056a9" />
  <circle cx="735.51" cy="54.62" r="15" fill="#0056a9" />
  <circle cx="59.00" cy="534.01" r="15" fill="#d90d0d" />
  <circle cx="190.94" cy="578.99" r="15" fill="#0056a9" />
  <circle cx="228.74" cy="465.44" r="15" fill="#d90d0d" />
  <circle cx="160.78" cy="351.76" r="15" fill="#d90d0d" />
  <circle cx="303.80" cy="151.28" r="15" fill="#0056a9" />
  <circle cx="52.80" cy="142.60" r="15" fill="#d90d0d" />
  <circle cx="774.07" cy="116.52" r="15" fill="#0056a9" />
  <circle cx="517.28" cy="284.00" r="15" fill="#d90d0d" />
  <circle cx="380.46" cy="524.57" r="15" fill="#0056a9" />
  <circle cx="411.37" cy="546.55" r="15" fill="#0056a9" />
  <circle cx="456.96" cy="270.98" r="15" fill="#d90d0d" />
  <circle cx="661.35" cy="136.86" r="15" fill="#0056a9" />
  <circle cx="473.86" cy="434.51" r="15" fill="#0056a9" />
  <circle cx="728.25" cy="118.76" r="15" fill="#d90d0d" />
  <circle cx="608.13" cy="464.77" r="15" fill="#d90d0d" />
  <circle cx="553.27" cy="519.42" r="15" fill="#0056a9" />
  <circle cx="560.76" cy="381.22" r="15" fill="#d90d0d" />
  <circle cx="561.22" cy="180.88" r="15" fill="#d90d0d" />
  <circle cx="241.17" cy="376.48" r="15" fill="#0056a9" />
  <circle cx="421.92" cy="305.98" r="15" fill="#0056a9" />
  <circle cx="31.27" cy="373.66" r="15" fill="#0056a9" />
  <circle cx="538.07" cy="343.30" r="15" fill="#0056a9" />
  <circle cx="259.64" cy="116.25" r="15" fill="#0056a9" />
  <circle cx="602.23" cy="473.36" r="15" fill="#d90d0d" />
  <circle cx="717.48" cy="540.95" r="15" fill="#0056a9" />
  <circle cx="46.70" cy="305.14" r="15" fill="#0056a9" />
  <circle cx="35.84" cy="74.67" r="15" fill="#d90d0d" />
  <circle cx="19.11" cy="346.47" r="15" fill="#d90d0d" />
  <circle cx="220.41" cy="489.03" r="15" fill="#0056a9" />
  <circle cx="141.72" cy="361.16" r="15" fill="#d90d0d" />
  <circle cx="677.40" cy="77.08" r="15" fill="#0056a9" />
<text x="10" y="590" font-size="20" fill="#0056a9" font-family="Courier, monospace">WEST TEXAS</text>
</svg>