<?xml version="1.0" encoding="utf-8" standalone="no"?>
<!DOCTYPE svg PUBLIC "-//W3C//DTD SVG 1.1//EN"
  "http://www.w3.org/Graphics/SVG/1.1/DTD/svg11.dtd">
<svg xmlns:xlink="http://www.w3.org/1999/xlink" width="720pt" height="432pt" viewBox="0 0 720 432" xmlns="http://www.w3.org/2000/svg" version="1.1">
 <metadata>
  <rdf:RDF xmlns:dc="http://purl.org/dc/elements/1.1/" xmlns:cc="http://creativecommons.org/ns#" xmlns:rdf="http://www.w3.org/1999/02/22-rdf-syntax-ns#">
   <cc:Work>
    <dc:type rdf:resource="http://purl.org/dc/dcmitype/StillImage"/>
    <dc:date>2025-04-14T11:14:27.941011</dc:date>
    <dc:format>image/svg+xml</dc:format>
    <dc:creator>
     <cc:Agent>
      <dc:title>Matplotlib v3.10.1, https://matplotlib.org/</dc:title>
     </cc:Agent>
    </dc:creator>
   </cc:Work>
  </rdf:RDF>
 </metadata>
 <defs>
  <style type="text/css">*{stroke-linejoin: round; stroke-linecap: butt}</style>
 </defs>
 <g id="figure_1">
  <g id="patch_1">
   <path d="M 0 432 
L 720 432 
L 720 0 
L 0 0 
z
" style="fill: #ffffff"/>
  </g>
  <g id="axes_1">
   <g id="patch_2">
    <path d="M 252.97 387.16 
L 700.155 387.16 
L 700.155 10.8 
L 252.97 10.8 
z
" style="fill: #ffffff"/>
   </g>
   <g id="patch_3">
    <path d="M 252.97 370.052727 
L 459.363077 370.052727 
L 459.363077 342.122486 
L 252.97 342.122486 
z
" clip-path="url(#p4596e69b16)" style="fill: #0056a9"/>
   </g>
   <g id="patch_4">
    <path d="M 252.97 335.139926 
L 501.406111 335.139926 
L 501.406111 307.209685 
L 252.97 307.209685 
z
" clip-path="url(#p4596e69b16)" style="fill: #0056a9"/>
   </g>
   <g id="patch_5">
    <path d="M 252.97 300.227124 
L 551.093333 300.227124 
L 551.093333 272.296883 
L 252.97 272.296883 
z
" clip-path="url(#p4596e69b16)" style="fill: #0056a9"/>
   </g>
   <g id="patch_6">
    <path d="M 252.97 265.314323 
L 598.522045 265.314323 
L 598.522045 237.384082 
L 252.97 237.384082 
z
" clip-path="url(#p4596e69b16)" style="fill: #0056a9"/>
   </g>
   <g id="patch_7">
    <path d="M 252.97 230.401521 
L 621.24 230.401521 
L 621.24 202.47128 
L 252.97 202.47128 
z
" clip-path="url(#p4596e69b16)" style="fill: #0056a9"/>
   </g>
   <g id="patch_8">
    <path d="M 252.97 195.48872 
L 638.776667 195.48872 
L 638.776667 167.558479 
L 252.97 167.558479 
z
" clip-path="url(#p4596e69b16)" style="fill: #0056a9"/>
   </g>
   <g id="patch_9">
    <path d="M 252.97 160.575918 
L 652.242321 160.575918 
L 652.242321 132.645677 
L 252.97 132.645677 
z
" clip-path="url(#p4596e69b16)" style="fill: #0056a9"/>
   </g>
   <g id="patch_10">
    <path d="M 252.97 125.663117 
L 654.18271 125.663117 
L 654.18271 97.732876 
L 252.97 97.732876 
z
" clip-path="url(#p4596e69b16)" style="fill: #0056a9"/>
   </g>
   <g id="patch_11">
    <path d="M 252.97 90.750315 
L 670.342667 90.750315 
L 670.342667 62.820074 
L 252.97 62.820074 
z
" clip-path="url(#p4596e69b16)" style="fill: #0056a9"/>
   </g>
   <g id="patch_12">
    <path d="M 252.97 55.837514 
L 675.311389 55.837514 
L 675.311389 27.907273 
L 252.97 27.907273 
z
" clip-path="url(#p4596e69b16)" style="fill: #0056a9"/>
   </g>
   <g id="matplotlib.axis_1">
    <g id="xtick_1">
     <g id="line2d_1">
      <defs>
       <path id="m76d19f43ec" d="M 0 0 
L 0 3.5 
" style="stroke: #0056a9; stroke-width: 0.8"/>
      </defs>
      <g>
       <use xlink:href="#m76d19f43ec" x="252.97" y="387.16" style="fill: #0056a9; stroke: #0056a9; stroke-width: 0.8"/>
      </g>
     </g>
     <g id="text_1">
      <!-- 0.0 -->
      <g style="fill: #0056a9" transform="translate(243.939531 401.811563) scale(0.1 -0.1)">
       <defs>
        <path id="DejaVuSansMono-30" d="M 1509 2344 
Q 1509 2516 1629 2641 
Q 1750 2766 1919 2766 
Q 2094 2766 2219 2641 
Q 2344 2516 2344 2344 
Q 2344 2169 2220 2047 
Q 2097 1925 1919 1925 
Q 1744 1925 1626 2044 
Q 1509 2163 1509 2344 
z
M 1925 4250 
Q 1484 4250 1267 3775 
Q 1050 3300 1050 2328 
Q 1050 1359 1267 884 
Q 1484 409 1925 409 
Q 2369 409 2586 884 
Q 2803 1359 2803 2328 
Q 2803 3300 2586 3775 
Q 2369 4250 1925 4250 
z
M 1925 4750 
Q 2672 4750 3055 4137 
Q 3438 3525 3438 2328 
Q 3438 1134 3055 521 
Q 2672 -91 1925 -91 
Q 1178 -91 797 521 
Q 416 1134 416 2328 
Q 416 3525 797 4137 
Q 1178 4750 1925 4750 
z
" transform="scale(0.015625)"/>
        <path id="DejaVuSansMono-2e" d="M 1528 953 
L 2316 953 
L 2316 0 
L 1528 0 
L 1528 953 
z
" transform="scale(0.015625)"/>
       </defs>
       <use xlink:href="#DejaVuSansMono-30"/>
       <use xlink:href="#DejaVuSansMono-2e" transform="translate(60.205078 0)"/>
       <use xlink:href="#DejaVuSansMono-30" transform="translate(120.410156 0)"/>
      </g>
     </g>
    </g>
    <g id="xtick_2">
     <g id="line2d_2">
      <g>
       <use xlink:href="#m76d19f43ec" x="342.407" y="387.16" style="fill: #0056a9; stroke: #0056a9; stroke-width: 0.8"/>
      </g>
     </g>
     <g id="text_2">
      <!-- 0.2 -->
      <g style="fill: #0056a9" transform="translate(333.376531 401.811563) scale(0.1 -0.1)">
       <defs>
        <path id="DejaVuSansMono-32" d="M 1166 531 
L 3309 531 
L 3309 0 
L 475 0 
L 475 531 
Q 1059 1147 1496 1619 
Q 1934 2091 2100 2284 
Q 2413 2666 2522 2902 
Q 2631 3138 2631 3384 
Q 2631 3775 2401 3997 
Q 2172 4219 1772 4219 
Q 1488 4219 1175 4116 
Q 863 4013 513 3803 
L 513 4441 
Q 834 4594 1145 4672 
Q 1456 4750 1759 4750 
Q 2444 4750 2861 4386 
Q 3278 4022 3278 3431 
Q 3278 3131 3139 2831 
Q 3000 2531 2688 2169 
Q 2513 1966 2180 1606 
Q 1847 1247 1166 531 
z
" transform="scale(0.015625)"/>
       </defs>
       <use xlink:href="#DejaVuSansMono-30"/>
       <use xlink:href="#DejaVuSansMono-2e" transform="translate(60.205078 0)"/>
       <use xlink:href="#DejaVuSansMono-32" transform="translate(120.410156 0)"/>
      </g>
     </g>
    </g>
    <g id="xtick_3">
     <g id="line2d_3">
      <g>
       <use xlink:href="#m76d19f43ec" x="431.844" y="387.16" style="fill: #0056a9; stroke: #0056a9; stroke-width: 0.8"/>
      </g>
     </g>
     <g id="text_3">
      <!-- 0.4 -->
      <g style="fill: #0056a9" transform="translate(422.813531 401.811563) scale(0.1 -0.1)">
       <defs>
        <path id="DejaVuSansMono-34" d="M 2297 4091 
L 825 1625 
L 2297 1625 
L 2297 4091 
z
M 2194 4666 
L 2925 4666 
L 2925 1625 
L 3547 1625 
L 3547 1113 
L 2925 1113 
L 2925 0 
L 2297 0 
L 2297 1113 
L 319 1113 
L 319 1709 
L 2194 4666 
z
" transform="scale(0.015625)"/>
       </defs>
       <use xlink:href="#DejaVuSansMono-30"/>
       <use xlink:href="#DejaVuSansMono-2e" transform="translate(60.205078 0)"/>
       <use xlink:href="#DejaVuSansMono-34" transform="translate(120.410156 0)"/>
      </g>
     </g>
    </g>
    <g id="xtick_4">
     <g id="line2d_4">
      <g>
       <use xlink:href="#m76d19f43ec" x="521.281" y="387.16" style="fill: #0056a9; stroke: #0056a9; stroke-width: 0.8"/>
      </g>
     </g>
     <g id="text_4">
      <!-- 0.6 -->
      <g style="fill: #0056a9" transform="translate(512.250531 401.811563) scale(0.1 -0.1)">
       <defs>
        <path id="DejaVuSansMono-36" d="M 3097 4563 
L 3097 3981 
Q 2900 4097 2678 4158 
Q 2456 4219 2216 4219 
Q 1616 4219 1306 3767 
Q 997 3316 997 2438 
Q 1147 2750 1412 2917 
Q 1678 3084 2022 3084 
Q 2697 3084 3067 2670 
Q 3438 2256 3438 1497 
Q 3438 741 3056 325 
Q 2675 -91 1984 -91 
Q 1172 -91 794 492 
Q 416 1075 416 2328 
Q 416 3509 870 4129 
Q 1325 4750 2188 4750 
Q 2419 4750 2650 4701 
Q 2881 4653 3097 4563 
z
M 1972 2591 
Q 1569 2591 1337 2300 
Q 1106 2009 1106 1497 
Q 1106 984 1337 693 
Q 1569 403 1972 403 
Q 2391 403 2603 679 
Q 2816 956 2816 1497 
Q 2816 2041 2603 2316 
Q 2391 2591 1972 2591 
z
" transform="scale(0.015625)"/>
       </defs>
       <use xlink:href="#DejaVuSansMono-30"/>
       <use xlink:href="#DejaVuSansMono-2e" transform="translate(60.205078 0)"/>
       <use xlink:href="#DejaVuSansMono-36" transform="translate(120.410156 0)"/>
      </g>
     </g>
    </g>
    <g id="xtick_5">
     <g id="line2d_5">
      <g>
       <use xlink:href="#m76d19f43ec" x="610.718" y="387.16" style="fill: #0056a9; stroke: #0056a9; stroke-width: 0.8"/>
      </g>
     </g>
     <g id="text_5">
      <!-- 0.8 -->
      <g style="fill: #0056a9" transform="translate(601.687531 401.811563) scale(0.1 -0.1)">
       <defs>
        <path id="DejaVuSansMono-38" d="M 1925 2216 
Q 1503 2216 1273 1980 
Q 1044 1744 1044 1313 
Q 1044 881 1276 642 
Q 1509 403 1925 403 
Q 2350 403 2579 639 
Q 2809 875 2809 1313 
Q 2809 1741 2576 1978 
Q 2344 2216 1925 2216 
z
M 1375 2478 
Q 972 2581 745 2862 
Q 519 3144 519 3541 
Q 519 4097 897 4423 
Q 1275 4750 1925 4750 
Q 2578 4750 2956 4423 
Q 3334 4097 3334 3541 
Q 3334 3144 3107 2862 
Q 2881 2581 2478 2478 
Q 2947 2375 3195 2062 
Q 3444 1750 3444 1253 
Q 3444 622 3041 265 
Q 2638 -91 1925 -91 
Q 1213 -91 811 264 
Q 409 619 409 1247 
Q 409 1747 657 2061 
Q 906 2375 1375 2478 
z
M 1147 3481 
Q 1147 3106 1347 2909 
Q 1547 2713 1925 2713 
Q 2306 2713 2506 2909 
Q 2706 3106 2706 3481 
Q 2706 3863 2507 4063 
Q 2309 4263 1925 4263 
Q 1547 4263 1347 4061 
Q 1147 3859 1147 3481 
z
" transform="scale(0.015625)"/>
       </defs>
       <use xlink:href="#DejaVuSansMono-30"/>
       <use xlink:href="#DejaVuSansMono-2e" transform="translate(60.205078 0)"/>
       <use xlink:href="#DejaVuSansMono-38" transform="translate(120.410156 0)"/>
      </g>
     </g>
    </g>
    <g id="xtick_6">
     <g id="line2d_6">
      <g>
       <use xlink:href="#m76d19f43ec" x="700.155" y="387.16" style="fill: #0056a9; stroke: #0056a9; stroke-width: 0.8"/>
      </g>
     </g>
     <g id="text_6">
      <!-- 1.0 -->
      <g style="fill: #0056a9" transform="translate(691.124531 401.811563) scale(0.1 -0.1)">
       <defs>
        <path id="DejaVuSansMono-31" d="M 844 531 
L 1825 531 
L 1825 4097 
L 769 3859 
L 769 4434 
L 1819 4666 
L 2450 4666 
L 2450 531 
L 3419 531 
L 3419 0 
L 844 0 
L 844 531 
z
" transform="scale(0.015625)"/>
       </defs>
       <use xlink:href="#DejaVuSansMono-31"/>
       <use xlink:href="#DejaVuSansMono-2e" transform="translate(60.205078 0)"/>
       <use xlink:href="#DejaVuSansMono-30" transform="translate(120.410156 0)"/>
      </g>
     </g>
    </g>
    <g id="text_7">
     <!-- MMR VACCINATION COVERAGE -->
     <g style="fill: #0056a9" transform="translate(389.87 417.073125) scale(0.12 -0.12)">
      <defs>
       <path id="DejaVuSansMono-4d" d="M 269 4666 
L 1113 4666 
L 1919 2291 
L 2731 4666 
L 3578 4666 
L 3578 0 
L 2994 0 
L 2994 4122 
L 2163 1663 
L 1684 1663 
L 850 4122 
L 850 0 
L 269 0 
L 269 4666 
z
" transform="scale(0.015625)"/>
       <path id="DejaVuSansMono-52" d="M 2375 2203 
Q 2619 2141 2791 1967 
Q 2963 1794 3219 1275 
L 3853 0 
L 3175 0 
L 2619 1178 
Q 2378 1681 2186 1826 
Q 1994 1972 1684 1972 
L 1081 1972 
L 1081 0 
L 447 0 
L 447 4666 
L 1747 4666 
Q 2516 4666 2925 4319 
Q 3334 3972 3334 3316 
Q 3334 2853 3082 2561 
Q 2831 2269 2375 2203 
z
M 1081 4147 
L 1081 2491 
L 1772 2491 
Q 2225 2491 2447 2694 
Q 2669 2897 2669 3316 
Q 2669 3719 2433 3933 
Q 2197 4147 1747 4147 
L 1081 4147 
z
" transform="scale(0.015625)"/>
       <path id="DejaVuSansMono-20" transform="scale(0.015625)"/>
       <path id="DejaVuSansMono-56" d="M 1925 531 
L 3022 4666 
L 3675 4666 
L 2309 0 
L 1544 0 
L 178 4666 
L 831 4666 
L 1925 531 
z
" transform="scale(0.015625)"/>
       <path id="DejaVuSansMono-41" d="M 1925 4109 
L 1259 1722 
L 2591 1722 
L 1925 4109 
z
M 1544 4666 
L 2309 4666 
L 3738 0 
L 3084 0 
L 2741 1216 
L 1106 1216 
L 769 0 
L 116 0 
L 1544 4666 
z
" transform="scale(0.015625)"/>
       <path id="DejaVuSansMono-43" d="M 3353 166 
Q 3113 38 2859 -26 
Q 2606 -91 2322 -91 
Q 1425 -91 929 543 
Q 434 1178 434 2328 
Q 434 3472 932 4111 
Q 1431 4750 2322 4750 
Q 2606 4750 2859 4686 
Q 3113 4622 3353 4494 
L 3353 3847 
Q 3122 4038 2856 4138 
Q 2591 4238 2322 4238 
Q 1706 4238 1400 3763 
Q 1094 3288 1094 2328 
Q 1094 1372 1400 897 
Q 1706 422 2322 422 
Q 2597 422 2861 522 
Q 3125 622 3353 813 
L 3353 166 
z
" transform="scale(0.015625)"/>
       <path id="DejaVuSansMono-49" d="M 628 4666 
L 3219 4666 
L 3219 4134 
L 2241 4134 
L 2241 531 
L 3219 531 
L 3219 0 
L 628 0 
L 628 531 
L 1606 531 
L 1606 4134 
L 628 4134 
L 628 4666 
z
" transform="scale(0.015625)"/>
       <path id="DejaVuSansMono-4e" d="M 434 4666 
L 1234 4666 
L 2809 825 
L 2809 4666 
L 3419 4666 
L 3419 0 
L 2619 0 
L 1044 3841 
L 1044 0 
L 434 0 
L 434 4666 
z
" transform="scale(0.015625)"/>
       <path id="DejaVuSansMono-54" d="M 147 4666 
L 3706 4666 
L 3706 4134 
L 2247 4134 
L 2247 0 
L 1613 0 
L 1613 4134 
L 147 4134 
L 147 4666 
z
" transform="scale(0.015625)"/>
       <path id="DejaVuSansMono-4f" d="M 2828 2328 
Q 2828 3356 2617 3797 
Q 2406 4238 1925 4238 
Q 1447 4238 1236 3797 
Q 1025 3356 1025 2328 
Q 1025 1303 1236 862 
Q 1447 422 1925 422 
Q 2406 422 2617 861 
Q 2828 1300 2828 2328 
z
M 3488 2328 
Q 3488 1109 3102 509 
Q 2716 -91 1925 -91 
Q 1134 -91 750 506 
Q 366 1103 366 2328 
Q 366 3550 752 4150 
Q 1138 4750 1925 4750 
Q 2716 4750 3102 4150 
Q 3488 3550 3488 2328 
z
" transform="scale(0.015625)"/>
       <path id="DejaVuSansMono-45" d="M 616 4666 
L 3384 4666 
L 3384 4134 
L 1247 4134 
L 1247 2753 
L 3291 2753 
L 3291 2222 
L 1247 2222 
L 1247 531 
L 3444 531 
L 3444 0 
L 616 0 
L 616 4666 
z
" transform="scale(0.015625)"/>
       <path id="DejaVuSansMono-47" d="M 3450 384 
Q 3197 150 2880 29 
Q 2563 -91 2194 -91 
Q 1306 -91 812 545 
Q 319 1181 319 2328 
Q 319 3472 819 4111 
Q 1319 4750 2209 4750 
Q 2503 4750 2772 4667 
Q 3041 4584 3291 4416 
L 3291 3769 
Q 3038 4009 2772 4123 
Q 2506 4238 2209 4238 
Q 1594 4238 1286 3761 
Q 978 3284 978 2328 
Q 978 1356 1276 889 
Q 1575 422 2194 422 
Q 2403 422 2561 470 
Q 2719 519 2847 622 
L 2847 1875 
L 2169 1875 
L 2169 2394 
L 3450 2394 
L 3450 384 
z
" transform="scale(0.015625)"/>
      </defs>
      <use xlink:href="#DejaVuSansMono-4d"/>
      <use xlink:href="#DejaVuSansMono-4d" transform="translate(60.205078 0)"/>
      <use xlink:href="#DejaVuSansMono-52" transform="translate(120.410156 0)"/>
      <use xlink:href="#DejaVuSansMono-20" transform="translate(180.615234 0)"/>
      <use xlink:href="#DejaVuSansMono-56" transform="translate(240.820312 0)"/>
      <use xlink:href="#DejaVuSansMono-41" transform="translate(301.025391 0)"/>
      <use xlink:href="#DejaVuSansMono-43" transform="translate(361.230469 0)"/>
      <use xlink:href="#DejaVuSansMono-43" transform="translate(421.435547 0)"/>
      <use xlink:href="#DejaVuSansMono-49" transform="translate(481.640625 0)"/>
      <use xlink:href="#DejaVuSansMono-4e" transform="translate(541.845703 0)"/>
      <use xlink:href="#DejaVuSansMono-41" transform="translate(602.050781 0)"/>
      <use xlink:href="#DejaVuSansMono-54" transform="translate(662.255859 0)"/>
      <use xlink:href="#DejaVuSansMono-49" transform="translate(722.460938 0)"/>
      <use xlink:href="#DejaVuSansMono-4f" transform="translate(782.666016 0)"/>
      <use xlink:href="#DejaVuSansMono-4e" transform="translate(842.871094 0)"/>
      <use xlink:href="#DejaVuSansMono-20" transform="translate(903.076172 0)"/>
      <use xlink:href="#DejaVuSansMono-43" transform="translate(963.28125 0)"/>
      <use xlink:href="#DejaVuSansMono-4f" transform="translate(1023.486328 0)"/>
      <use xlink:href="#DejaVuSansMono-56" transform="translate(1083.691406 0)"/>
      <use xlink:href="#DejaVuSansMono-45" transform="translate(1143.896484 0)"/>
      <use xlink:href="#DejaVuSansMono-52" transform="translate(1204.101562 0)"/>
      <use xlink:href="#DejaVuSansMono-41" transform="translate(1264.306641 0)"/>
      <use xlink:href="#DejaVuSansMono-47" transform="translate(1324.511719 0)"/>
      <use xlink:href="#DejaVuSansMono-45" transform="translate(1384.716797 0)"/>
     </g>
    </g>
   </g>
   <g id="matplotlib.axis_2">
    <g id="ytick_1">
     <g id="line2d_7">
      <defs>
       <path id="mbd201e9b99" d="M 0 0 
L -3.5 0 
" style="stroke: #0056a9; stroke-width: 0.8"/>
      </defs>
      <g>
       <use xlink:href="#mbd201e9b99" x="252.97" y="356.087607" style="fill: #0056a9; stroke: #0056a9; stroke-width: 0.8"/>
      </g>
     </g>
     <g id="text_8">
      <!-- TRINITY CHRISTIAN ACADEMY PARIS (LAMAR) -->
      <g style="fill: #0056a9" transform="translate(11.177813 359.913388) scale(0.1 -0.1)">
       <defs>
        <path id="DejaVuSansMono-59" d="M 116 4666 
L 788 4666 
L 1925 2606 
L 3059 4666 
L 3738 4666 
L 2241 2094 
L 2241 0 
L 1606 0 
L 1606 2094 
L 116 4666 
z
" transform="scale(0.015625)"/>
        <path id="DejaVuSansMono-48" d="M 428 4666 
L 1063 4666 
L 1063 2753 
L 2791 2753 
L 2791 4666 
L 3425 4666 
L 3425 0 
L 2791 0 
L 2791 2222 
L 1063 2222 
L 1063 0 
L 428 0 
L 428 4666 
z
" transform="scale(0.015625)"/>
        <path id="DejaVuSansMono-53" d="M 3163 4506 
L 3163 3866 
Q 2875 4050 2586 4144 
Q 2297 4238 2003 4238 
Q 1556 4238 1297 4030 
Q 1038 3822 1038 3469 
Q 1038 3159 1208 2996 
Q 1378 2834 1844 2725 
L 2175 2650 
Q 2831 2497 3131 2169 
Q 3431 1841 3431 1275 
Q 3431 609 3018 259 
Q 2606 -91 1819 -91 
Q 1491 -91 1159 -20 
Q 828 50 494 191 
L 494 863 
Q 853 634 1173 528 
Q 1494 422 1819 422 
Q 2297 422 2562 636 
Q 2828 850 2828 1234 
Q 2828 1584 2645 1768 
Q 2463 1953 2009 2053 
L 1672 2131 
Q 1022 2278 728 2575 
Q 434 2872 434 3372 
Q 434 3997 854 4373 
Q 1275 4750 1972 4750 
Q 2241 4750 2537 4689 
Q 2834 4628 3163 4506 
z
" transform="scale(0.015625)"/>
        <path id="DejaVuSansMono-44" d="M 1363 519 
Q 2159 519 2475 911 
Q 2791 1303 2791 2328 
Q 2791 3363 2477 3755 
Q 2163 4147 1363 4147 
L 1063 4147 
L 1063 519 
L 1363 519 
z
M 1375 4666 
Q 2444 4666 2950 4097 
Q 3456 3528 3456 2328 
Q 3456 1134 2950 567 
Q 2444 0 1375 0 
L 428 0 
L 428 4666 
L 1375 4666 
z
" transform="scale(0.015625)"/>
        <path id="DejaVuSansMono-50" d="M 1247 4147 
L 1247 2394 
L 1978 2394 
Q 2416 2394 2661 2625 
Q 2906 2856 2906 3272 
Q 2906 3688 2662 3917 
Q 2419 4147 1978 4147 
L 1247 4147 
z
M 616 4666 
L 1978 4666 
Q 2759 4666 3162 4311 
Q 3566 3956 3566 3272 
Q 3566 2581 3164 2228 
Q 2763 1875 1978 1875 
L 1247 1875 
L 1247 0 
L 616 0 
L 616 4666 
z
" transform="scale(0.015625)"/>
        <path id="DejaVuSansMono-28" d="M 2766 4856 
Q 2350 4144 2145 3436 
Q 1941 2728 1941 2009 
Q 1941 1294 2145 584 
Q 2350 -125 2766 -844 
L 2266 -844 
Q 1794 -100 1562 604 
Q 1331 1309 1331 2009 
Q 1331 2706 1562 3412 
Q 1794 4119 2266 4856 
L 2766 4856 
z
" transform="scale(0.015625)"/>
        <path id="DejaVuSansMono-4c" d="M 672 4666 
L 1306 4666 
L 1306 531 
L 3559 531 
L 3559 0 
L 672 0 
L 672 4666 
z
" transform="scale(0.015625)"/>
        <path id="DejaVuSansMono-29" d="M 1088 4856 
L 1588 4856 
Q 2059 4119 2290 3412 
Q 2522 2706 2522 2009 
Q 2522 1306 2290 600 
Q 2059 -106 1588 -844 
L 1088 -844 
Q 1503 -119 1708 590 
Q 1913 1300 1913 2009 
Q 1913 2722 1708 3431 
Q 1503 4141 1088 4856 
z
" transform="scale(0.015625)"/>
       </defs>
       <use xlink:href="#DejaVuSansMono-54"/>
       <use xlink:href="#DejaVuSansMono-52" transform="translate(60.205078 0)"/>
       <use xlink:href="#DejaVuSansMono-49" transform="translate(120.410156 0)"/>
       <use xlink:href="#DejaVuSansMono-4e" transform="translate(180.615234 0)"/>
       <use xlink:href="#DejaVuSansMono-49" transform="translate(240.820312 0)"/>
       <use xlink:href="#DejaVuSansMono-54" transform="translate(301.025391 0)"/>
       <use xlink:href="#DejaVuSansMono-59" transform="translate(361.230469 0)"/>
       <use xlink:href="#DejaVuSansMono-20" transform="translate(421.435547 0)"/>
       <use xlink:href="#DejaVuSansMono-43" transform="translate(481.640625 0)"/>
       <use xlink:href="#DejaVuSansMono-48" transform="translate(541.845703 0)"/>
       <use xlink:href="#DejaVuSansMono-52" transform="translate(602.050781 0)"/>
       <use xlink:href="#DejaVuSansMono-49" transform="translate(662.255859 0)"/>
       <use xlink:href="#DejaVuSansMono-53" transform="translate(722.460938 0)"/>
       <use xlink:href="#DejaVuSansMono-54" transform="translate(782.666016 0)"/>
       <use xlink:href="#DejaVuSansMono-49" transform="translate(842.871094 0)"/>
       <use xlink:href="#DejaVuSansMono-41" transform="translate(903.076172 0)"/>
       <use xlink:href="#DejaVuSansMono-4e" transform="translate(963.28125 0)"/>
       <use xlink:href="#DejaVuSansMono-20" transform="translate(1023.486328 0)"/>
       <use xlink:href="#DejaVuSansMono-41" transform="translate(1083.691406 0)"/>
       <use xlink:href="#DejaVuSansMono-43" transform="translate(1143.896484 0)"/>
       <use xlink:href="#DejaVuSansMono-41" transform="translate(1204.101562 0)"/>
       <use xlink:href="#DejaVuSansMono-44" transform="translate(1264.306641 0)"/>
       <use xlink:href="#DejaVuSansMono-45" transform="translate(1324.511719 0)"/>
       <use xlink:href="#DejaVuSansMono-4d" transform="translate(1384.716797 0)"/>
       <use xlink:href="#DejaVuSansMono-59" transform="translate(1444.921875 0)"/>
       <use xlink:href="#DejaVuSansMono-20" transform="translate(1505.126953 0)"/>
       <use xlink:href="#DejaVuSansMono-50" transform="translate(1565.332031 0)"/>
       <use xlink:href="#DejaVuSansMono-41" transform="translate(1625.537109 0)"/>
       <use xlink:href="#DejaVuSansMono-52" transform="translate(1685.742188 0)"/>
       <use xlink:href="#DejaVuSansMono-49" transform="translate(1745.947266 0)"/>
       <use xlink:href="#DejaVuSansMono-53" transform="translate(1806.152344 0)"/>
       <use xlink:href="#DejaVuSansMono-20" transform="translate(1866.357422 0)"/>
       <use xlink:href="#DejaVuSansMono-28" transform="translate(1926.5625 0)"/>
       <use xlink:href="#DejaVuSansMono-4c" transform="translate(1986.767578 0)"/>
       <use xlink:href="#DejaVuSansMono-41" transform="translate(2046.972656 0)"/>
       <use xlink:href="#DejaVuSansMono-4d" transform="translate(2107.177734 0)"/>
       <use xlink:href="#DejaVuSansMono-41" transform="translate(2167.382812 0)"/>
       <use xlink:href="#DejaVuSansMono-52" transform="translate(2227.587891 0)"/>
       <use xlink:href="#DejaVuSansMono-29" transform="translate(2287.792969 0)"/>
      </g>
     </g>
    </g>
    <g id="ytick_2">
     <g id="line2d_8">
      <g>
       <use xlink:href="#mbd201e9b99" x="252.97" y="321.174805" style="fill: #0056a9; stroke: #0056a9; stroke-width: 0.8"/>
      </g>
     </g>
     <g id="text_9">
      <!-- LOOP ISD (GAINES) -->
      <g style="fill: #0056a9" transform="translate(143.624688 325.000586) scale(0.1 -0.1)">
       <use xlink:href="#DejaVuSansMono-4c"/>
       <use xlink:href="#DejaVuSansMono-4f" transform="translate(60.205078 0)"/>
       <use xlink:href="#DejaVuSansMono-4f" transform="translate(120.410156 0)"/>
       <use xlink:href="#DejaVuSansMono-50" transform="translate(180.615234 0)"/>
       <use xlink:href="#DejaVuSansMono-20" transform="translate(240.820312 0)"/>
       <use xlink:href="#DejaVuSansMono-49" transform="translate(301.025391 0)"/>
       <use xlink:href="#DejaVuSansMono-53" transform="translate(361.230469 0)"/>
       <use xlink:href="#DejaVuSansMono-44" transform="translate(421.435547 0)"/>
       <use xlink:href="#DejaVuSansMono-20" transform="translate(481.640625 0)"/>
       <use xlink:href="#DejaVuSansMono-28" transform="translate(541.845703 0)"/>
       <use xlink:href="#DejaVuSansMono-47" transform="translate(602.050781 0)"/>
       <use xlink:href="#DejaVuSansMono-41" transform="translate(662.255859 0)"/>
       <use xlink:href="#DejaVuSansMono-49" transform="translate(722.460938 0)"/>
       <use xlink:href="#DejaVuSansMono-4e" transform="translate(782.666016 0)"/>
       <use xlink:href="#DejaVuSansMono-45" transform="translate(842.871094 0)"/>
       <use xlink:href="#DejaVuSansMono-53" transform="translate(903.076172 0)"/>
       <use xlink:href="#DejaVuSansMono-29" transform="translate(963.28125 0)"/>
      </g>
     </g>
    </g>
    <g id="ytick_3">
     <g id="line2d_9">
      <g>
       <use xlink:href="#mbd201e9b99" x="252.97" y="286.262004" style="fill: #0056a9; stroke: #0056a9; stroke-width: 0.8"/>
      </g>
     </g>
     <g id="text_10">
      <!-- WILSON ISD (LYNN) -->
      <g style="fill: #0056a9" transform="translate(143.624688 290.087785) scale(0.1 -0.1)">
       <defs>
        <path id="DejaVuSansMono-57" d="M 0 4666 
L 616 4666 
L 1063 878 
L 1594 3384 
L 2253 3384 
L 2791 872 
L 3238 4666 
L 3853 4666 
L 3156 0 
L 2559 0 
L 1925 2772 
L 1294 0 
L 697 0 
L 0 4666 
z
" transform="scale(0.015625)"/>
       </defs>
       <use xlink:href="#DejaVuSansMono-57"/>
       <use xlink:href="#DejaVuSansMono-49" transform="translate(60.205078 0)"/>
       <use xlink:href="#DejaVuSansMono-4c" transform="translate(120.410156 0)"/>
       <use xlink:href="#DejaVuSansMono-53" transform="translate(180.615234 0)"/>
       <use xlink:href="#DejaVuSansMono-4f" transform="translate(240.820312 0)"/>
       <use xlink:href="#DejaVuSansMono-4e" transform="translate(301.025391 0)"/>
       <use xlink:href="#DejaVuSansMono-20" transform="translate(361.230469 0)"/>
       <use xlink:href="#DejaVuSansMono-49" transform="translate(421.435547 0)"/>
       <use xlink:href="#DejaVuSansMono-53" transform="translate(481.640625 0)"/>
       <use xlink:href="#DejaVuSansMono-44" transform="translate(541.845703 0)"/>
       <use xlink:href="#DejaVuSansMono-20" transform="translate(602.050781 0)"/>
       <use xlink:href="#DejaVuSansMono-28" transform="translate(662.255859 0)"/>
       <use xlink:href="#DejaVuSansMono-4c" transform="translate(722.460938 0)"/>
       <use xlink:href="#DejaVuSansMono-59" transform="translate(782.666016 0)"/>
       <use xlink:href="#DejaVuSansMono-4e" transform="translate(842.871094 0)"/>
       <use xlink:href="#DejaVuSansMono-4e" transform="translate(903.076172 0)"/>
       <use xlink:href="#DejaVuSansMono-29" transform="translate(963.28125 0)"/>
      </g>
     </g>
    </g>
    <g id="ytick_4">
     <g id="line2d_10">
      <g>
       <use xlink:href="#mbd201e9b99" x="252.97" y="251.349202" style="fill: #0056a9; stroke: #0056a9; stroke-width: 0.8"/>
      </g>
     </g>
     <g id="text_11">
      <!-- KINGDOM PREPARATORY ACADEMY (LUBBOCK) -->
      <g style="fill: #0056a9" transform="translate(23.218438 255.174983) scale(0.1 -0.1)">
       <defs>
        <path id="DejaVuSansMono-4b" d="M 428 4666 
L 1063 4666 
L 1063 2591 
L 3034 4666 
L 3775 4666 
L 1959 2759 
L 3828 0 
L 3066 0 
L 1544 2338 
L 1063 1825 
L 1063 0 
L 428 0 
L 428 4666 
z
" transform="scale(0.015625)"/>
        <path id="DejaVuSansMono-55" d="M 459 1791 
L 459 4666 
L 1094 4666 
L 1094 1503 
Q 1094 1163 1112 1017 
Q 1131 872 1178 794 
Q 1278 609 1467 515 
Q 1656 422 1925 422 
Q 2197 422 2384 515 
Q 2572 609 2675 794 
Q 2722 872 2740 1015 
Q 2759 1159 2759 1497 
L 2759 4666 
L 3391 4666 
L 3391 1791 
Q 3391 1075 3302 773 
Q 3213 472 2994 275 
Q 2788 91 2522 0 
Q 2256 -91 1925 -91 
Q 1597 -91 1331 0 
Q 1066 91 856 275 
Q 641 469 550 776 
Q 459 1084 459 1791 
z
" transform="scale(0.015625)"/>
        <path id="DejaVuSansMono-42" d="M 1153 2228 
L 1153 519 
L 1900 519 
Q 2450 519 2684 711 
Q 2919 903 2919 1344 
Q 2919 1800 2672 2014 
Q 2425 2228 1900 2228 
L 1153 2228 
z
M 1153 4147 
L 1153 2741 
L 1888 2741 
Q 2344 2741 2548 2916 
Q 2753 3091 2753 3481 
Q 2753 3834 2551 3990 
Q 2350 4147 1888 4147 
L 1153 4147 
z
M 519 4666 
L 1900 4666 
Q 2616 4666 3003 4356 
Q 3391 4047 3391 3481 
Q 3391 3053 3186 2806 
Q 2981 2559 2572 2497 
Q 3031 2428 3292 2104 
Q 3553 1781 3553 1281 
Q 3553 647 3137 323 
Q 2722 0 1900 0 
L 519 0 
L 519 4666 
z
" transform="scale(0.015625)"/>
       </defs>
       <use xlink:href="#DejaVuSansMono-4b"/>
       <use xlink:href="#DejaVuSansMono-49" transform="translate(60.205078 0)"/>
       <use xlink:href="#DejaVuSansMono-4e" transform="translate(120.410156 0)"/>
       <use xlink:href="#DejaVuSansMono-47" transform="translate(180.615234 0)"/>
       <use xlink:href="#DejaVuSansMono-44" transform="translate(240.820312 0)"/>
       <use xlink:href="#DejaVuSansMono-4f" transform="translate(301.025391 0)"/>
       <use xlink:href="#DejaVuSansMono-4d" transform="translate(361.230469 0)"/>
       <use xlink:href="#DejaVuSansMono-20" transform="translate(421.435547 0)"/>
       <use xlink:href="#DejaVuSansMono-50" transform="translate(481.640625 0)"/>
       <use xlink:href="#DejaVuSansMono-52" transform="translate(541.845703 0)"/>
       <use xlink:href="#DejaVuSansMono-45" transform="translate(602.050781 0)"/>
       <use xlink:href="#DejaVuSansMono-50" transform="translate(662.255859 0)"/>
       <use xlink:href="#DejaVuSansMono-41" transform="translate(722.460938 0)"/>
       <use xlink:href="#DejaVuSansMono-52" transform="translate(782.666016 0)"/>
       <use xlink:href="#DejaVuSansMono-41" transform="translate(842.871094 0)"/>
       <use xlink:href="#DejaVuSansMono-54" transform="translate(903.076172 0)"/>
       <use xlink:href="#DejaVuSansMono-4f" transform="translate(963.28125 0)"/>
       <use xlink:href="#DejaVuSansMono-52" transform="translate(1023.486328 0)"/>
       <use xlink:href="#DejaVuSansMono-59" transform="translate(1083.691406 0)"/>
       <use xlink:href="#DejaVuSansMono-20" transform="translate(1143.896484 0)"/>
       <use xlink:href="#DejaVuSansMono-41" transform="translate(1204.101562 0)"/>
       <use xlink:href="#DejaVuSansMono-43" transform="translate(1264.306641 0)"/>
       <use xlink:href="#DejaVuSansMono-41" transform="translate(1324.511719 0)"/>
       <use xlink:href="#DejaVuSansMono-44" transform="translate(1384.716797 0)"/>
       <use xlink:href="#DejaVuSansMono-45" transform="translate(1444.921875 0)"/>
       <use xlink:href="#DejaVuSansMono-4d" transform="translate(1505.126953 0)"/>
       <use xlink:href="#DejaVuSansMono-59" transform="translate(1565.332031 0)"/>
       <use xlink:href="#DejaVuSansMono-20" transform="translate(1625.537109 0)"/>
       <use xlink:href="#DejaVuSansMono-28" transform="translate(1685.742188 0)"/>
       <use xlink:href="#DejaVuSansMono-4c" transform="translate(1745.947266 0)"/>
       <use xlink:href="#DejaVuSansMono-55" transform="translate(1806.152344 0)"/>
       <use xlink:href="#DejaVuSansMono-42" transform="translate(1866.357422 0)"/>
       <use xlink:href="#DejaVuSansMono-42" transform="translate(1926.5625 0)"/>
       <use xlink:href="#DejaVuSansMono-4f" transform="translate(1986.767578 0)"/>
       <use xlink:href="#DejaVuSansMono-43" transform="translate(2046.972656 0)"/>
       <use xlink:href="#DejaVuSansMono-4b" transform="translate(2107.177734 0)"/>
       <use xlink:href="#DejaVuSansMono-29" transform="translate(2167.382812 0)"/>
      </g>
     </g>
    </g>
    <g id="ytick_5">
     <g id="line2d_11">
      <g>
       <use xlink:href="#mbd201e9b99" x="252.97" y="216.436401" style="fill: #0056a9; stroke: #0056a9; stroke-width: 0.8"/>
      </g>
     </g>
     <g id="text_12">
      <!-- WELLMAN-UNION CISD (TERRY) -->
      <g style="fill: #0056a9" transform="translate(89.441875 220.262182) scale(0.1 -0.1)">
       <defs>
        <path id="DejaVuSansMono-2d" d="M 1113 2009 
L 2741 2009 
L 2741 1497 
L 1113 1497 
L 1113 2009 
z
" transform="scale(0.015625)"/>
       </defs>
       <use xlink:href="#DejaVuSansMono-57"/>
       <use xlink:href="#DejaVuSansMono-45" transform="translate(60.205078 0)"/>
       <use xlink:href="#DejaVuSansMono-4c" transform="translate(120.410156 0)"/>
       <use xlink:href="#DejaVuSansMono-4c" transform="translate(180.615234 0)"/>
       <use xlink:href="#DejaVuSansMono-4d" transform="translate(240.820312 0)"/>
       <use xlink:href="#DejaVuSansMono-41" transform="translate(301.025391 0)"/>
       <use xlink:href="#DejaVuSansMono-4e" transform="translate(361.230469 0)"/>
       <use xlink:href="#DejaVuSansMono-2d" transform="translate(421.435547 0)"/>
       <use xlink:href="#DejaVuSansMono-55" transform="translate(481.640625 0)"/>
       <use xlink:href="#DejaVuSansMono-4e" transform="translate(541.845703 0)"/>
       <use xlink:href="#DejaVuSansMono-49" transform="translate(602.050781 0)"/>
       <use xlink:href="#DejaVuSansMono-4f" transform="translate(662.255859 0)"/>
       <use xlink:href="#DejaVuSansMono-4e" transform="translate(722.460938 0)"/>
       <use xlink:href="#DejaVuSansMono-20" transform="translate(782.666016 0)"/>
       <use xlink:href="#DejaVuSansMono-43" transform="translate(842.871094 0)"/>
       <use xlink:href="#DejaVuSansMono-49" transform="translate(903.076172 0)"/>
       <use xlink:href="#DejaVuSansMono-53" transform="translate(963.28125 0)"/>
       <use xlink:href="#DejaVuSansMono-44" transform="translate(1023.486328 0)"/>
       <use xlink:href="#DejaVuSansMono-20" transform="translate(1083.691406 0)"/>
       <use xlink:href="#DejaVuSansMono-28" transform="translate(1143.896484 0)"/>
       <use xlink:href="#DejaVuSansMono-54" transform="translate(1204.101562 0)"/>
       <use xlink:href="#DejaVuSansMono-45" transform="translate(1264.306641 0)"/>
       <use xlink:href="#DejaVuSansMono-52" transform="translate(1324.511719 0)"/>
       <use xlink:href="#DejaVuSansMono-52" transform="translate(1384.716797 0)"/>
       <use xlink:href="#DejaVuSansMono-59" transform="translate(1444.921875 0)"/>
       <use xlink:href="#DejaVuSansMono-29" transform="translate(1505.126953 0)"/>
      </g>
     </g>
    </g>
    <g id="ytick_6">
     <g id="line2d_12">
      <g>
       <use xlink:href="#mbd201e9b99" x="252.97" y="181.523599" style="fill: #0056a9; stroke: #0056a9; stroke-width: 0.8"/>
      </g>
     </g>
     <g id="text_13">
      <!-- TRINITY CHRISTIAN SCHOOL (LUBBOCK) -->
      <g style="fill: #0056a9" transform="translate(41.279375 185.349381) scale(0.1 -0.1)">
       <use xlink:href="#DejaVuSansMono-54"/>
       <use xlink:href="#DejaVuSansMono-52" transform="translate(60.205078 0)"/>
       <use xlink:href="#DejaVuSansMono-49" transform="translate(120.410156 0)"/>
       <use xlink:href="#DejaVuSansMono-4e" transform="translate(180.615234 0)"/>
       <use xlink:href="#DejaVuSansMono-49" transform="translate(240.820312 0)"/>
       <use xlink:href="#DejaVuSansMono-54" transform="translate(301.025391 0)"/>
       <use xlink:href="#DejaVuSansMono-59" transform="translate(361.230469 0)"/>
       <use xlink:href="#DejaVuSansMono-20" transform="translate(421.435547 0)"/>
       <use xlink:href="#DejaVuSansMono-43" transform="translate(481.640625 0)"/>
       <use xlink:href="#DejaVuSansMono-48" transform="translate(541.845703 0)"/>
       <use xlink:href="#DejaVuSansMono-52" transform="translate(602.050781 0)"/>
       <use xlink:href="#DejaVuSansMono-49" transform="translate(662.255859 0)"/>
       <use xlink:href="#DejaVuSansMono-53" transform="translate(722.460938 0)"/>
       <use xlink:href="#DejaVuSansMono-54" transform="translate(782.666016 0)"/>
       <use xlink:href="#DejaVuSansMono-49" transform="translate(842.871094 0)"/>
       <use xlink:href="#DejaVuSansMono-41" transform="translate(903.076172 0)"/>
       <use xlink:href="#DejaVuSansMono-4e" transform="translate(963.28125 0)"/>
       <use xlink:href="#DejaVuSansMono-20" transform="translate(1023.486328 0)"/>
       <use xlink:href="#DejaVuSansMono-53" transform="translate(1083.691406 0)"/>
       <use xlink:href="#DejaVuSansMono-43" transform="translate(1143.896484 0)"/>
       <use xlink:href="#DejaVuSansMono-48" transform="translate(1204.101562 0)"/>
       <use xlink:href="#DejaVuSansMono-4f" transform="translate(1264.306641 0)"/>
       <use xlink:href="#DejaVuSansMono-4f" transform="translate(1324.511719 0)"/>
       <use xlink:href="#DejaVuSansMono-4c" transform="translate(1384.716797 0)"/>
       <use xlink:href="#DejaVuSansMono-20" transform="translate(1444.921875 0)"/>
       <use xlink:href="#DejaVuSansMono-28" transform="translate(1505.126953 0)"/>
       <use xlink:href="#DejaVuSansMono-4c" transform="translate(1565.332031 0)"/>
       <use xlink:href="#DejaVuSansMono-55" transform="translate(1625.537109 0)"/>
       <use xlink:href="#DejaVuSansMono-42" transform="translate(1685.742188 0)"/>
       <use xlink:href="#DejaVuSansMono-42" transform="translate(1745.947266 0)"/>
       <use xlink:href="#DejaVuSansMono-4f" transform="translate(1806.152344 0)"/>
       <use xlink:href="#DejaVuSansMono-43" transform="translate(1866.357422 0)"/>
       <use xlink:href="#DejaVuSansMono-4b" transform="translate(1926.5625 0)"/>
       <use xlink:href="#DejaVuSansMono-29" transform="translate(1986.767578 0)"/>
      </g>
     </g>
    </g>
    <g id="ytick_7">
     <g id="line2d_13">
      <g>
       <use xlink:href="#mbd201e9b99" x="252.97" y="146.610798" style="fill: #0056a9; stroke: #0056a9; stroke-width: 0.8"/>
      </g>
     </g>
     <g id="text_14">
      <!-- SOUTHCREST CHRISTIAN SCHOOL (LUBBOCK) -->
      <g style="fill: #0056a9" transform="translate(23.218438 150.436579) scale(0.1 -0.1)">
       <use xlink:href="#DejaVuSansMono-53"/>
       <use xlink:href="#DejaVuSansMono-4f" transform="translate(60.205078 0)"/>
       <use xlink:href="#DejaVuSansMono-55" transform="translate(120.410156 0)"/>
       <use xlink:href="#DejaVuSansMono-54" transform="translate(180.615234 0)"/>
       <use xlink:href="#DejaVuSansMono-48" transform="translate(240.820312 0)"/>
       <use xlink:href="#DejaVuSansMono-43" transform="translate(301.025391 0)"/>
       <use xlink:href="#DejaVuSansMono-52" transform="translate(361.230469 0)"/>
       <use xlink:href="#DejaVuSansMono-45" transform="translate(421.435547 0)"/>
       <use xlink:href="#DejaVuSansMono-53" transform="translate(481.640625 0)"/>
       <use xlink:href="#DejaVuSansMono-54" transform="translate(541.845703 0)"/>
       <use xlink:href="#DejaVuSansMono-20" transform="translate(602.050781 0)"/>
       <use xlink:href="#DejaVuSansMono-43" transform="translate(662.255859 0)"/>
       <use xlink:href="#DejaVuSansMono-48" transform="translate(722.460938 0)"/>
       <use xlink:href="#DejaVuSansMono-52" transform="translate(782.666016 0)"/>
       <use xlink:href="#DejaVuSansMono-49" transform="translate(842.871094 0)"/>
       <use xlink:href="#DejaVuSansMono-53" transform="translate(903.076172 0)"/>
       <use xlink:href="#DejaVuSansMono-54" transform="translate(963.28125 0)"/>
       <use xlink:href="#DejaVuSansMono-49" transform="translate(1023.486328 0)"/>
       <use xlink:href="#DejaVuSansMono-41" transform="translate(1083.691406 0)"/>
       <use xlink:href="#DejaVuSansMono-4e" transform="translate(1143.896484 0)"/>
       <use xlink:href="#DejaVuSansMono-20" transform="translate(1204.101562 0)"/>
       <use xlink:href="#DejaVuSansMono-53" transform="translate(1264.306641 0)"/>
       <use xlink:href="#DejaVuSansMono-43" transform="translate(1324.511719 0)"/>
       <use xlink:href="#DejaVuSansMono-48" transform="translate(1384.716797 0)"/>
       <use xlink:href="#DejaVuSansMono-4f" transform="translate(1444.921875 0)"/>
       <use xlink:href="#DejaVuSansMono-4f" transform="translate(1505.126953 0)"/>
       <use xlink:href="#DejaVuSansMono-4c" transform="translate(1565.332031 0)"/>
       <use xlink:href="#DejaVuSansMono-20" transform="translate(1625.537109 0)"/>
       <use xlink:href="#DejaVuSansMono-28" transform="translate(1685.742188 0)"/>
       <use xlink:href="#DejaVuSansMono-4c" transform="translate(1745.947266 0)"/>
       <use xlink:href="#DejaVuSansMono-55" transform="translate(1806.152344 0)"/>
       <use xlink:href="#DejaVuSansMono-42" transform="translate(1866.357422 0)"/>
       <use xlink:href="#DejaVuSansMono-42" transform="translate(1926.5625 0)"/>
       <use xlink:href="#DejaVuSansMono-4f" transform="translate(1986.767578 0)"/>
       <use xlink:href="#DejaVuSansMono-43" transform="translate(2046.972656 0)"/>
       <use xlink:href="#DejaVuSansMono-4b" transform="translate(2107.177734 0)"/>
       <use xlink:href="#DejaVuSansMono-29" transform="translate(2167.382812 0)"/>
      </g>
     </g>
    </g>
    <g id="ytick_8">
     <g id="line2d_14">
      <g>
       <use xlink:href="#mbd201e9b99" x="252.97" y="111.697996" style="fill: #0056a9; stroke: #0056a9; stroke-width: 0.8"/>
      </g>
     </g>
     <g id="text_15">
      <!-- SEMINOLE ISD (GAINES) -->
      <g style="fill: #0056a9" transform="translate(119.543438 115.523778) scale(0.1 -0.1)">
       <use xlink:href="#DejaVuSansMono-53"/>
       <use xlink:href="#DejaVuSansMono-45" transform="translate(60.205078 0)"/>
       <use xlink:href="#DejaVuSansMono-4d" transform="translate(120.410156 0)"/>
       <use xlink:href="#DejaVuSansMono-49" transform="translate(180.615234 0)"/>
       <use xlink:href="#DejaVuSansMono-4e" transform="translate(240.820312 0)"/>
       <use xlink:href="#DejaVuSansMono-4f" transform="translate(301.025391 0)"/>
       <use xlink:href="#DejaVuSansMono-4c" transform="translate(361.230469 0)"/>
       <use xlink:href="#DejaVuSansMono-45" transform="translate(421.435547 0)"/>
       <use xlink:href="#DejaVuSansMono-20" transform="translate(481.640625 0)"/>
       <use xlink:href="#DejaVuSansMono-49" transform="translate(541.845703 0)"/>
       <use xlink:href="#DejaVuSansMono-53" transform="translate(602.050781 0)"/>
       <use xlink:href="#DejaVuSansMono-44" transform="translate(662.255859 0)"/>
       <use xlink:href="#DejaVuSansMono-20" transform="translate(722.460938 0)"/>
       <use xlink:href="#DejaVuSansMono-28" transform="translate(782.666016 0)"/>
       <use xlink:href="#DejaVuSansMono-47" transform="translate(842.871094 0)"/>
       <use xlink:href="#DejaVuSansMono-41" transform="translate(903.076172 0)"/>
       <use xlink:href="#DejaVuSansMono-49" transform="translate(963.28125 0)"/>
       <use xlink:href="#DejaVuSansMono-4e" transform="translate(1023.486328 0)"/>
       <use xlink:href="#DejaVuSansMono-45" transform="translate(1083.691406 0)"/>
       <use xlink:href="#DejaVuSansMono-53" transform="translate(1143.896484 0)"/>
       <use xlink:href="#DejaVuSansMono-29" transform="translate(1204.101562 0)"/>
      </g>
     </g>
    </g>
    <g id="ytick_9">
     <g id="line2d_15">
      <g>
       <use xlink:href="#mbd201e9b99" x="252.97" y="76.785195" style="fill: #0056a9; stroke: #0056a9; stroke-width: 0.8"/>
      </g>
     </g>
     <g id="text_16">
      <!-- O'DONNELL ISD (LYNN) -->
      <g style="fill: #0056a9" transform="translate(125.56375 80.610976) scale(0.1 -0.1)">
       <defs>
        <path id="DejaVuSansMono-27" d="M 2194 4666 
L 2194 2931 
L 1650 2931 
L 1650 4666 
L 2194 4666 
z
" transform="scale(0.015625)"/>
       </defs>
       <use xlink:href="#DejaVuSansMono-4f"/>
       <use xlink:href="#DejaVuSansMono-27" transform="translate(60.205078 0)"/>
       <use xlink:href="#DejaVuSansMono-44" transform="translate(120.410156 0)"/>
       <use xlink:href="#DejaVuSansMono-4f" transform="translate(180.615234 0)"/>
       <use xlink:href="#DejaVuSansMono-4e" transform="translate(240.820312 0)"/>
       <use xlink:href="#DejaVuSansMono-4e" transform="translate(301.025391 0)"/>
       <use xlink:href="#DejaVuSansMono-45" transform="translate(361.230469 0)"/>
       <use xlink:href="#DejaVuSansMono-4c" transform="translate(421.435547 0)"/>
       <use xlink:href="#DejaVuSansMono-4c" transform="translate(481.640625 0)"/>
       <use xlink:href="#DejaVuSansMono-20" transform="translate(541.845703 0)"/>
       <use xlink:href="#DejaVuSansMono-49" transform="translate(602.050781 0)"/>
       <use xlink:href="#DejaVuSansMono-53" transform="translate(662.255859 0)"/>
       <use xlink:href="#DejaVuSansMono-44" transform="translate(722.460938 0)"/>
       <use xlink:href="#DejaVuSansMono-20" transform="translate(782.666016 0)"/>
       <use xlink:href="#DejaVuSansMono-28" transform="translate(842.871094 0)"/>
       <use xlink:href="#DejaVuSansMono-4c" transform="translate(903.076172 0)"/>
       <use xlink:href="#DejaVuSansMono-59" transform="translate(963.28125 0)"/>
       <use xlink:href="#DejaVuSansMono-4e" transform="translate(1023.486328 0)"/>
       <use xlink:href="#DejaVuSansMono-4e" transform="translate(1083.691406 0)"/>
       <use xlink:href="#DejaVuSansMono-29" transform="translate(1143.896484 0)"/>
      </g>
     </g>
    </g>
    <g id="ytick_10">
     <g id="line2d_16">
      <g>
       <use xlink:href="#mbd201e9b99" x="252.97" y="41.872393" style="fill: #0056a9; stroke: #0056a9; stroke-width: 0.8"/>
      </g>
     </g>
     <g id="text_17">
      <!-- NEW DEAL ISD (LUBBOCK) -->
      <g style="fill: #0056a9" transform="translate(113.523125 45.698175) scale(0.1 -0.1)">
       <use xlink:href="#DejaVuSansMono-4e"/>
       <use xlink:href="#DejaVuSansMono-45" transform="translate(60.205078 0)"/>
       <use xlink:href="#DejaVuSansMono-57" transform="translate(120.410156 0)"/>
       <use xlink:href="#DejaVuSansMono-20" transform="translate(180.615234 0)"/>
       <use xlink:href="#DejaVuSansMono-44" transform="translate(240.820312 0)"/>
       <use xlink:href="#DejaVuSansMono-45" transform="translate(301.025391 0)"/>
       <use xlink:href="#DejaVuSansMono-41" transform="translate(361.230469 0)"/>
       <use xlink:href="#DejaVuSansMono-4c" transform="translate(421.435547 0)"/>
       <use xlink:href="#DejaVuSansMono-20" transform="translate(481.640625 0)"/>
       <use xlink:href="#DejaVuSansMono-49" transform="translate(541.845703 0)"/>
       <use xlink:href="#DejaVuSansMono-53" transform="translate(602.050781 0)"/>
       <use xlink:href="#DejaVuSansMono-44" transform="translate(662.255859 0)"/>
       <use xlink:href="#DejaVuSansMono-20" transform="translate(722.460938 0)"/>
       <use xlink:href="#DejaVuSansMono-28" transform="translate(782.666016 0)"/>
       <use xlink:href="#DejaVuSansMono-4c" transform="translate(842.871094 0)"/>
       <use xlink:href="#DejaVuSansMono-55" transform="translate(903.076172 0)"/>
       <use xlink:href="#DejaVuSansMono-42" transform="translate(963.28125 0)"/>
       <use xlink:href="#DejaVuSansMono-42" transform="translate(1023.486328 0)"/>
       <use xlink:href="#DejaVuSansMono-4f" transform="translate(1083.691406 0)"/>
       <use xlink:href="#DejaVuSansMono-43" transform="translate(1143.896484 0)"/>
       <use xlink:href="#DejaVuSansMono-4b" transform="translate(1204.101562 0)"/>
       <use xlink:href="#DejaVuSansMono-29" transform="translate(1264.306641 0)"/>
      </g>
     </g>
    </g>
   </g>
   <g id="patch_13">
    <path d="M 252.97 387.16 
L 700.155 387.16 
" style="fill: none; stroke: #0056a9; stroke-width: 0.8; stroke-linejoin: miter; stroke-linecap: square"/>
   </g>
  </g>
 </g>
 <defs>
  <clipPath id="p4596e69b16">
   <rect x="252.97" y="10.8" width="447.185" height="376.36"/>
  </clipPath>
 </defs>
</svg>
